# xmcd
#
# Track frame offsets:
# 150
# 17700
# 35170
# 50135
# 66190
# 79185
# 90975
# 103682
# 119727
# 136910
# 152402
# 169225
# 186334
# 201912
# 217770
#
# Disc length: 3057 seconds
#
#
# Revision: 2
# Processed by: cddbd v1.5.2PL0 Copyright (c) Steve Scherf et al.
# Submitted via: FreeRIP 2.945 
#
DISCID=d30bef0f
DTITLE=Limão com Mel - Toda Sua
DYEAR=1900
DGENRE=forró
TTITLE0=Vaqueiro bom demais
TTITLE1=Toda sua
TTITLE2=Amor proibido
TTITLE3=Fantasias
TTITLE4=Sentimentos e paix es
TTITLE5=Corpo, alma e cora  o
TTITLE6=Reencontro
TTITLE7=Te amar
TTITLE8=Fica comigo
TTITLE9=Louca por voc
TTITLE10=Teu perfume, tua flor
TTITLE11=Meu para so
TTITLE12=Imposs vel
TTITLE13=Mais que um desejo
TTITLE14=Vaqueiro jogador
EXTD=
EXTT0=
EXTT1=
EXTT2=
EXTT3=
EXTT4=
EXTT5=
EXTT6=
EXTT7=
EXTT8=
EXTT9=
EXTT10=
EXTT11=
EXTT12=
EXTT13=
EXTT14=
PLAYORDER=
